<svg viewBox="0 0 481.29 123.61" xmlns="http://www.w3.org/2000/svg"><g fill="#fff"><path d="m63.1 23.4h-45.84v27.48h44.51v16.22h-44.51v38.22h45.84v16.22h-63.1v-114.36h63.1z"/><path d="m90.89 7.18v98.13h33.62v16.22h-50.88v-114.35z"/><path d="m225.38 13.33v20.44c-9.97-8.34-20.29-12.52-30.96-12.52-11.75 0-21.65 4.22-29.7 12.66-8.1 8.39-12.15 18.66-12.15 30.81s4.05 22.12 12.15 30.37 18.02 12.37 29.77 12.37c6.07 0 11.23-.99 15.48-2.96 2.37-.99 4.83-2.32 7.37-4s5.22-3.7 8.04-6.07v20.81c-9.88 5.58-20.24 8.37-31.11 8.37-16.34 0-30.29-5.7-41.84-17.11-11.5-11.5-17.26-25.38-17.26-41.62 0-14.56 4.81-27.55 14.44-38.96 11.85-13.97 27.18-20.96 45.99-20.96 10.27 0 20.19 2.79 29.77 8.37z"/><path d="m308.26 93.76h-48.95l-12.74 27.77h-18.59l56.58-121.53 54.58 121.53h-18.89l-12-27.77zm-7.04-16.22-16.96-38.88-17.78 38.88h34.73z"/><path d="m383.07 72.8 35.4 48.73h-21.11l-32.66-46.81h-3.11v46.81h-17.26v-114.35h20.22c15.11 0 26.02 2.84 32.74 8.52 7.41 6.32 11.11 14.66 11.11 25.03 0 8.1-2.32 15.06-6.96 20.89s-10.76 9.55-18.37 11.18zm-21.48-13.11h5.48c16.34 0 24.51-6.25 24.51-18.74 0-11.7-7.95-17.55-23.85-17.55h-6.15v36.29z"/><path d="m455.07 23.4v98.13h-17.26v-98.13h-26.29v-16.22h69.77v16.22z"/></g></svg>